<svg width="512" height="512" viewBox="0 0 512 512" fill="none" xmlns="http://www.w3.org/2000/svg">
<rect width="512" height="512" rx="100" fill="#F6F6F6"/>
<path d="M68.549 211.24H110.789C130.117 211.24 142.277 223.144 142.277 240.808C142.277 258.856 129.733 270.76 109.893 270.76H89.669V297H68.549V211.24ZM89.669 253.096H108.357C116.549 253.096 121.541 248.36 121.541 241.064C121.541 234.152 116.549 229.288 108.357 229.288H89.669V253.096ZM196.173 231.848C197.965 231.848 199.245 231.976 200.781 232.36L199.885 252.84H196.173C181.837 252.84 174.029 260.264 174.029 276.904V297H153.549V232.744H174.029V245.032C178.637 237.352 185.677 231.848 196.173 231.848ZM272.025 264.872V270.12H224.921C226.585 277.8 231.833 282.536 238.745 282.536C243.481 282.536 248.985 281.384 252.441 275.112L270.617 278.824C265.113 292.392 253.465 298.92 238.745 298.92C220.185 298.92 204.825 285.224 204.825 264.872C204.825 244.648 220.185 230.824 238.873 230.824C257.049 230.824 271.641 243.88 272.025 264.872ZM238.873 247.464C233.113 247.464 227.225 251.048 225.305 257.576H251.801C249.881 250.664 244.761 247.464 238.873 247.464ZM338.878 280.744V297H279.486V283.816L311.742 249H280.254V232.744H337.726V246.184L305.47 280.744H338.878ZM407.753 280.744V297H348.361V283.816L380.617 249H349.129V232.744H406.601V246.184L374.345 280.744H407.753ZM431.188 202.152C438.1 202.152 443.092 207.528 443.092 213.8C443.092 220.328 438.1 225.192 431.188 225.192C424.276 225.192 419.412 220.328 419.412 213.8C419.412 207.528 424.276 202.152 431.188 202.152ZM441.428 297H420.948V232.744H441.428V297Z" fill="#1A1C1A"/>
</svg>
