<svg width="512" height="512" viewBox="0 0 512 512" fill="none" xmlns="http://www.w3.org/2000/svg">
<path d="M193.163 144.421C193.854 136.3 200.72 130 208.919 130H303.752C311.952 130 318.817 136.3 319.509 144.421L326.424 227.305C329.387 262.743 305.432 293.849 272.141 301.429V350.5H295.85C304.592 350.5 311.655 357.538 311.655 366.25C311.655 374.962 304.592 382 295.85 382H256.336H216.822C208.079 382 201.016 374.962 201.016 366.25C201.016 357.538 208.079 350.5 216.822 350.5H240.53V301.478C207.24 293.898 183.284 262.792 186.248 227.355L193.163 144.47V144.421ZM220.822 193H291.849L289.231 161.5H223.44L220.822 193Z" fill="black"/>
</svg>
