<svg width="512" height="512" viewBox="0 0 512 512" fill="none" xmlns="http://www.w3.org/2000/svg">
<g clip-path="url(#clip0_152_122)">
<path d="M350.286 130C342.429 130 287.429 145.75 287.429 216.625V271.75C287.429 289.124 301.522 303.25 318.857 303.25H334.571V366.25C334.571 374.962 341.594 382 350.286 382C358.978 382 366 374.962 366 366.25V303.25V248.125V145.75C366 137.038 358.978 130 350.286 130ZM177.429 137.875C177.429 133.839 174.433 130.492 170.406 130.049C166.379 129.606 162.795 132.264 161.911 136.152L147.031 203.238C146.344 206.338 146 209.488 146 212.638C146 235.23 163.237 253.785 185.286 255.803V366.25C185.286 374.962 192.308 382 201 382C209.692 382 216.714 374.962 216.714 366.25V255.803C238.763 253.785 256 235.23 256 212.638C256 209.488 255.656 206.338 254.969 203.238L240.089 136.152C239.205 132.215 235.522 129.606 231.545 130.049C227.567 130.492 224.571 133.839 224.571 137.875V203.927C224.571 206.584 222.411 208.75 219.759 208.75C217.254 208.75 215.192 206.83 214.946 204.32L208.808 137.186C208.464 133.101 205.076 130 201 130C196.924 130 193.536 133.101 193.192 137.186L187.103 204.32C186.857 206.83 184.795 208.75 182.29 208.75C179.638 208.75 177.478 206.584 177.478 203.927V137.875H177.429ZM201.147 212.688H201H200.853L201 212.343L201.147 212.688Z" fill="black"/>
</g>
<defs>
<clipPath id="clip0_152_122">
<rect width="220" height="252" fill="white" transform="translate(146 130)"/>
</clipPath>
</defs>
</svg>
