<svg width="275" height="365" viewBox="0 0 275 365" fill="none" xmlns="http://www.w3.org/2000/svg">
<path d="M154.399 355.946C190.977 310.169 274.402 199.221 274.402 136.902C274.402 61.3208 213.081 0 137.5 0C61.9186 0 0.597763 61.3208 0.597763 136.902C0.597763 199.221 84.0226 310.169 120.601 355.946C129.371 366.855 145.629 366.855 154.399 355.946Z" fill="#0AAC11"/>
<path d="M138.042 59.5816C143.584 59.5816 148.062 64.0595 148.062 69.6021V80.7813C148.563 80.8439 149.033 80.9066 149.534 81.0005C149.659 81.0318 149.753 81.0318 149.878 81.0631L164.909 83.8188C170.358 84.8208 173.959 90.0503 172.957 95.4677C171.955 100.885 166.725 104.517 161.308 103.515L146.434 100.791C136.632 99.3506 127.99 100.321 121.915 102.733C115.84 105.144 113.397 108.463 112.834 111.532C112.207 114.882 112.677 116.761 113.209 117.92C113.773 119.141 114.932 120.519 117.218 122.053C122.322 125.404 130.15 127.596 140.296 130.289L141.204 130.54C150.16 132.919 161.12 135.8 169.262 141.124C173.708 144.036 177.905 147.982 180.504 153.493C183.165 159.098 183.729 165.361 182.508 172.031C180.347 183.93 172.143 191.884 161.966 196.049C157.676 197.802 153.01 198.93 148.062 199.493V209.89C148.062 215.432 143.584 219.91 138.042 219.91C132.499 219.91 128.021 215.432 128.021 209.89V198.961C127.896 198.93 127.739 198.93 127.614 198.898H127.551C119.911 197.708 107.354 194.42 98.8989 190.663C93.8573 188.408 91.5713 182.49 93.826 177.448C96.0806 172.407 101.999 170.121 107.041 172.375C113.585 175.288 124.357 178.168 130.589 179.139C140.578 180.611 148.814 179.765 154.388 177.48C159.68 175.319 162.091 172.187 162.78 168.43C163.375 165.11 162.905 163.2 162.373 162.042C161.778 160.789 160.619 159.411 158.302 157.877C153.166 154.526 145.306 152.334 135.129 149.641L134.253 149.422C125.328 147.042 114.368 144.13 106.226 138.806C101.78 135.894 97.615 131.917 95.0159 126.406C92.3855 120.801 91.8532 114.538 93.1057 107.868C95.3603 95.9061 104.316 88.1401 114.493 84.1006C118.658 82.441 123.23 81.3137 128.021 80.6561V69.6021C128.021 64.0595 132.499 59.5816 138.042 59.5816Z" fill="#F6F6F6"/>
</svg>
